<?xml version="1.0" encoding="utf-8"?>
<!-- Generator: Adobe Illustrator 27.3.1, SVG Export Plug-In . SVG Version: 6.00 Build 0)  -->
<svg version="1.1" xmlns="http://www.w3.org/2000/svg" xmlns:xlink="http://www.w3.org/1999/xlink" x="0px" y="0px"
	 viewBox="0 0 762.8 90.1" style="enable-background:new 0 0 762.8 90.1;" xml:space="preserve">
<style type="text/css">
	.st0{display:none;}
	.st1{display:inline;fill:#FFFFFF;}
	.st2{display:inline;fill:#231F20;}
	.st3{fill:#FFFFFF;}
	.st4{fill:#231F20;}
</style>
<g id="Layer_1" class="st0">
	<polygon class="st1" points="859.3,20.5 859.4,73.5 871.7,75.6 870.2,20.2 	"/>
	<polygon class="st1" points="805.3,21 817.3,51.2 817.4,73.7 831.2,75.1 830.8,49.8 842.8,20.1 831.9,20.7 827.5,30.6 816.8,20.4 	
		"/>
	<polygon class="st1" points="757.9,20.8 758.1,74.6 771.7,74.9 770.7,52.5 781.8,52.5 780.1,38.5 771.7,39.5 771.4,33.1 
		790.6,32.7 790.5,20.2 	"/>
	<polygon class="st1" points="732.5,62.6 732.8,74.2 742.9,75.3 743.1,61.6 	"/>
	<polygon class="st1" points="667.3,2.8 667.3,17.3 681.4,19.7 683,74.7 699.5,75.3 697.9,17.8 715.9,17.2 713.6,2.9 	"/>
	<polygon class="st1" points="600.9,3.3 600.9,75.1 650.5,75.7 648.5,3.8 646.5,3 633.1,2.6 630.2,24.6 616.1,2.5 	"/>
	<polygon class="st1" points="536.8,2.8 536.1,73.8 540.3,75.1 580.2,74.2 578.3,57 568.1,26.2 580.5,17.3 580,2.3 	"/>
	<polygon class="st1" points="452.2,2.9 451.4,73.9 454.2,75.9 515.8,75.1 514.2,2.6 492.5,2.7 488.6,17.3 473.3,3.4 	"/>
	<rect x="385.5" y="3" class="st1" width="16.1" height="71.3"/>
	<rect x="395.7" y="29.4" class="st1" width="36.4" height="18.4"/>
	<rect x="413.3" y="3" class="st1" width="14.7" height="73.4"/>
	<polygon class="st1" points="337.9,0.5 345.5,1.4 351.3,3.1 361,10.3 364.1,31.6 364.2,56.2 354.1,73.3 340.8,75.7 326,69.9 
		320.5,62.2 318.7,56.5 318.6,20 320.5,12.7 324.2,7 329.7,2.5 	"/>
	<polygon class="st1" points="251.9,74.6 268.8,74.9 272.4,60.8 286.3,60.5 288.4,74.5 307.5,76.2 288.1,2.3 269.3,2.7 267.8,3.3 	
		"/>
	<rect x="188.2" y="3.4" class="st1" width="42.8" height="20.5"/>
	<rect x="187.1" y="57.3" class="st1" width="43.8" height="16.9"/>
	<rect x="187.4" y="22.4" class="st1" width="27.1" height="43.6"/>
	<rect x="210.8" y="30.5" class="st1" width="8.3" height="17.1"/>
	<rect x="122.6" y="2.9" class="st1" width="26.1" height="71.3"/>
	<polygon class="st1" points="146.2,3.4 151.5,3.8 159.3,9.1 165.9,20.6 165.7,36.1 159,47.7 139.6,52.2 134.4,28.5 	"/>
	<rect x="38.2" y="3" class="st1" width="23.2" height="71.1"/>
	<rect x="78.4" y="2.9" class="st1" width="22.4" height="71.6"/>
	<polygon class="st1" points="59.7,9.1 68.8,32.3 78.9,4.3 85.5,9.8 86,61.8 80.6,77.5 59.8,78.4 51.5,53.1 	"/>
	<rect x="1.4" y="2.3" class="st1" width="15.8" height="73.4"/>
	<path class="st2" d="M31.6,86.3c0,1.9-0.5,1.7-1.3,1.7H15.6c-0.7,0.1-1.5-0.2-2-0.7C12.9,86.6,1.7,76.9,1.1,76.6
		c-0.5-0.4-0.7-0.9-0.8-1.5C0.3,74.3,0,54.3,0,39.7S0.1,3.1,0.1,2.1c0-0.5-0.1-0.8,0.6-0.9s15.2,0.1,16.1,0.1s1.1,0.2,1.7,0.9
		c0.5,0.5,12,10.6,12.7,11.2c0.4,0.3,0.7,0.8,0.7,1.3v34.1C31.9,59,31.6,84.6,31.6,86.3z M15,72.2c0-0.7-0.1-24.1-0.2-34.2
		S14.2,5.5,14.2,4.7s-0.1-1.3-0.5-1.3L3,3.3c-0.6,0-0.7,0-0.7,0.7c0,0.9-0.1,21.1-0.1,32.6s0.1,34,0.1,34.9s0.1,1,0.6,1.1
		c2,0.5,4,0.7,6.1,0.7c3.1,0,5.1,0.1,5.4,0S15.1,73,15,72.2z"/>
	<path class="st2" d="M116.2,85.6c-0.1,1.6-0.7,2-1.5,2s-11.5,0.2-12.4,0.1s-0.9-0.2-1.6-0.6c-0.5-0.3-8.1-6.1-8.8-6.6s-1-0.7-1,0
		c-0.2,0.7-0.8,5.2-1.1,6.2c-0.1,0.9-0.4,1-1.1,1s-6.9,0.1-7.5,0.1c-0.6,0-1.2-0.2-1.7-0.5c-0.5-0.4-9.1-6.8-9.6-7.2
		s-0.7-0.5-0.7,0.1s-0.4,5.7-0.5,6.6s-0.7,1-1.5,1S53.1,87.9,52,87.9c-0.8,0-1.6-0.3-2.2-0.8c-0.7-0.5-11.6-11.5-12-12
		c-0.5-0.5-0.8-1.2-0.8-2c-0.1-0.8,0.3-31.5,0.3-36.9s0.5-33.5,0.6-34.3c0-0.6-0.1-0.6,1.2-0.7s19.1,0,20.2,0
		c0.9-0.1,1.8,0.2,2.4,0.8c0.8,0.7,10.6,9.8,11.8,10.9s0.9,0.7,1.1,0s2.7-9.6,3-10.7s0.3-0.8,1.3-0.9l21.9-0.1
		c0.9-0.2,1.9,0.2,2.4,1l12.7,12.7c0.4,0.5,0.5,0.5,0.6,1.6S116.2,84.2,116.2,85.6z M99,37c0-7.5-0.1-32.1-0.1-33S99,3.3,98,3.3
		S81.3,3.4,80.7,3.4c-0.8,0-0.9,0.2-1,0.6S69.6,38,69.4,38.9s-0.4,1.4-1-0.6S58.1,4.8,57.9,4.3S57.6,3.9,57,3.9S41.4,3.6,40.8,3.7
		s-0.9,0-0.9,0.5c0,0.7-0.7,32.4-0.9,38.7S38.8,53.7,38.8,57s0.1,14.8,0.1,15.4s-0.1,1.4,0.6,1.4s10.7-0.6,11.2-0.6s0.8,0.1,0.8-0.7
		s0.1-20,0.1-24.9s0.2-17.9,0.1-19.2s0.4-1,0.8,0.8s10.2,36.7,11,38.7c0.6,2,1,4.2,1.1,4.7s-0.2,0.6,0.5,0.6s6.4-0.2,6.8-0.1
		s0.5,0.2,0.7-0.7s3.9-13.8,6.5-22.2s5.8-19,6.1-20.5s0.6-1.9,0.6,0.1s-0.1,41.9,0,42.8s0.1,0.8,0.6,0.8H87c0,0,10.8-0.1,11.3-0.2
		s0.6,0.1,0.6-0.5S99,44.7,99,37z"/>
	<path class="st2" d="M170,58.7c-5.2,3.2-13,3.9-13.8,3.9s-0.7,0.3-0.8,1.2c0,0.7-0.2,21.5-0.2,22.9c-0.2,1.5-0.5,1.4-1.3,1.4
		s-16.4-0.2-17.4-0.3c-0.9,0.1-1.7-0.3-2.3-1c-0.6-0.6-3.1-2.7-5.6-5.2s-6.1-6.5-6.5-7c-0.4-0.5-0.6-1.2-0.5-1.8
		c0-1.1,0.1-16.9,0-28.6s-0.1-40.3,0-41.2c0-1.1,0.7-1,1.7-1.3c0.8-0.2,15.9-0.2,21.4,0c5.3,0.2,7.5,1.4,11.8,4s16.2,14,18.1,16.6
		c1.9,2.4,7,6.1,7.2,18.1S175.4,55.7,170,58.7z M164.4,24.2c0-6.2-3-10.5-5.7-13.6s-6.8-6.5-12.8-6.8s-20.7-0.3-21.6-0.2
		s-0.8-0.1-0.9,0.4s-0.3,23.6-0.2,34s0.2,33.3,0.2,34.1s-0.3,1.1,0.7,1.1s10.1,0.3,10.9,0.2c1,0,1.1-0.1,1.1-1v-13
		c0-5.9,0.4-13.7,0.3-14.3s0.4-0.6,0.9-0.6c0.7,0,7.5,0,11.6-0.5c3.8-0.4,7.2-2.3,9.6-5.2C162.3,34.9,164.4,29.7,164.4,24.2z
		 M137.5,16.6c2.5-0.2,5.1,0,7.6,0.4c1.8,0.4,6.1,2.1,6,7.1s-2.9,6-5.5,7c-2.6,0.8-7.1,0.5-8.2,0.5s-1.3-0.4-1.3-1.3s0-11.8,0-12.9
		C136.1,16.7,136.4,16.8,137.5,16.6z"/>
	<path class="st2" d="M246.2,30.7c-0.1,0.7-0.1,0.8-0.7,0.9c-0.8,0-21.7-0.2-22.2-0.3c-0.7,0-0.7,0-0.4,0.4s8.5,11.6,8.7,11.9
		c0.2,0.2,0.3,0.6,0.3,0.9c0,0.5,0.3,11.3,0.3,11.8s0,0.6-0.2,0.8s-0.4,0.2-0.1,0.6s13.2,13,13.6,13.5c0.3,0.3,0.4,0.7,0.4,1.1
		c0.1,0.4,0.1,13.9,0.1,14.8s-0.2,1-0.9,1l-43,0.4c-0.4,0-0.7-0.1-1-0.4c-0.4-0.3-13.6-12.6-13.9-12.9s-0.8-0.5-0.8-1.4
		s0.8-69.8,0.7-70.9c-0.1-0.7,0.2-0.9,1.1-1s42.6,0,43.3,0c0.5,0,0.9,0.1,1.3,0.4c0.5,0.3,12.3,10.7,12.9,11.3s0.4,0.7,0.4,1.4
		S246.2,29.9,246.2,30.7z M228.9,4.4c0-0.3,0.1-0.6-0.5-0.6s-38.3-0.3-38.8-0.3s-0.8,0.1-0.8,0.8s-1.1,68.2-0.9,68.7
		c0,0.5,0,0.5,0.5,0.5s39.6-0.4,40.4-0.4c0.6,0,0.5-0.3,0.4-0.7s0-11.6,0-12.1s-0.1-0.6-0.6-0.6s-25.7,0.1-26.3,0.1
		s-0.6-0.3-0.6-0.8s0-13.1,0-13.6s0.2-0.7,0.7-0.8c0.7-0.1,13.2-0.1,13.8-0.1s0.5-0.1,0.5-0.5s0.2-11.7,0.2-12.1s0.1-0.4-0.2-0.4
		l-14.5-0.2c-0.4,0-0.5-0.2-0.5-0.6s-0.1-12.6-0.1-13.3c0-0.2,0.1-0.3,0.6-0.4s25-0.2,25.8-0.3s0.9-0.4,0.9-0.9S229,4.7,228.9,4.4z"
		/>
	<path class="st2" d="M317,88.3l-13.7,0.2c-0.4-0.1-0.9-0.3-1.2-0.6c-0.3-0.3-5.5-4.5-7.3-6.3c-1.9-1.6-6.8-5.9-7-6.1
		s-0.3-0.5-0.4-0.2c-0.1,0.5-0.6,3.5-1.1,6s-1.3,5.6-1.4,6.3s-0.2,0.8-1,0.9s-17.2,0-18.3-0.1c-0.7,0-1.4-0.3-1.8-0.8
		c-0.7-0.5-12.8-12.4-13.2-12.8c-0.4-0.5-0.4-1.1-0.2-1.6c0.2-0.8,16.7-70.4,16.8-70.9s0.4-0.6,1.2-0.7s17.7-0.1,19,0
		s1.6,0.5,2.8,1.4s13.2,12.4,13.9,13.1c0.6,0.5,1,1.2,1.1,1.9c0.3,1,2.9,11.9,5,21.8c2.3,9.8,7.1,31,7.2,31.8c0.2,0.7,0.3,1.3,0.3,2
		c0,1,0.1,13.2,0.2,13.9S317.5,88.3,317,88.3z M302.6,72.9c0-0.2-3-15.1-6.6-30.6c-4.2-18.1-8.9-37.7-8.9-37.9c-0.1-0.4-0.1-1-0.5-1
		l-17,0.1c-0.2,0-0.3,0-0.4,0.6s-16.4,68.3-16.6,69c-0.1,0.3,0,0.4,0.2,0.4s3.9,0,6.1-0.1s6.2,0.1,6.5,0s0.3-0.1,0.3-0.3
		s1.5-5.9,2-7.9c0.6-2.2,1.5-6,1.7-6.3s0.3-0.5,0.7-0.6s3.6,0,7.3-0.1s8.1,0.1,8.7,0.1s0.8,0.3,0.9,0.8s2.8,13.4,2.9,13.8
		s0,0.5,0.4,0.5l11.9,0.1C302.8,73.5,302.7,73.3,302.6,72.9z M284.6,46.9c0.2,0.7-0.6,0.8-1.2,0.9s-9.7,0-10.3-0.1
		c-0.2,0-0.9,0-0.8-0.8s1.8-8.2,2.8-12.3s2.5-11.4,2.8-12.7s0.9-1,1-0.3s1.9,7.8,3.3,14.2C283.5,41.9,284.5,46.3,284.6,46.9z"/>
	<path class="st2" d="M379.2,36.7c0,2.5-0.2,9.7-0.2,10.3c0,0.8-0.3,0.4-1,0.4s-6.9,0-7.7,0.1c-0.3,0-0.3,0,0,0.6
		c0.5,0.7,2.1,2.5,3.5,4.6c1.3,1.4,2.5,2.8,3.6,4.4c0.5,0.6,0.9,1.3,1,2.1c0.3,2.3,0.5,4.7,0.4,7c0,3.3-0.2,10-1.7,14.9
		c-1.2,4.6-4.5,6.9-8.3,8.1s-10.9,0.8-13.9,0.6s-5.8-0.6-11.6-3.3s-13-9.3-18.5-15.7c-5-6.5-6.2-11.6-6.7-15.2s-0.4-27.5-0.1-35.2
		s3.1-11,6-14.4s8.2-5.3,9.9-5.8C336-0.2,341,0,345.7,0.4c4.5,0.6,8.7,3,14.5,7c5.9,4.2,12.4,11.8,14.1,13.8
		c1.6,2.2,2.9,4.6,3.8,7.2C378.8,31.1,379.2,33.9,379.2,36.7z M362.7,45c0-0.4,0.1-0.5-0.5-0.5l-12.9-0.1c-0.5-0.1-0.6,0-0.6,0.6
		s-0.1,4.2-0.3,7.3c-0.1,2.5-1.3,4.9-3.3,6.5c-1.9,1.5-6.1,2-8.6,0.3c-2.7-1.9-3.5-5.2-3.5-10.2c0.1-5.2,0.4-21.1,0.6-25.3
		c-0.1-3,1.4-5.8,3.8-7.5c2.4-1.1,5.1-1.1,7.5,0c1.7,0.9,2.8,2.5,3.1,4.4c0.8,2.7,0.4,8.7,0.5,9.4c0.1,0.2,0.1,0.6,0.5,0.6l13.2-0.2
		c0.4-0.1,0.3-0.1,0.3-0.7s0-5.6-0.2-8.8c-0.2-2.9-0.7-5-3.4-9.9s-8.9-7.3-12.6-8.4s-6.9-0.8-10.5-0.6s-7.2,2.2-10.1,5
		c-2.7,2.6-4.7,5.9-5.8,9.5c-0.8,3.3-0.8,5.6-0.9,13.7c0,8.3-0.1,20.1,0.5,25.3c0.3,5.4,2.5,9.1,6.6,12.7c4.2,3.8,10.9,5.7,18.1,5.2
		s11.5-4.7,15.3-10.8C363.5,56.2,362.6,45.6,362.7,45z"/>
	<path class="st2" d="M445.2,88.4c-0.1,0.5-0.2,0.8-0.7,0.9c-0.3,0.1-5.5,0.3-8.4,0.3s-8.3-0.1-8.6-0.1c-0.4,0-0.7-0.1-1-0.3
		c-0.4-0.4-8.1-7-8.5-7.3c-0.2-0.1-0.4-0.1-0.5,0.1c-0.1,0.1-0.1,0.2-0.1,0.2c-0.1,0.5-0.1,6.2-0.1,6.5s-0.1,0.8-0.5,0.9
		s-15.3,0.2-16.3,0.2s-1.4-0.6-2.4-1.4c-0.9-0.6-12.7-13-13.2-13.5s-0.4-0.5-0.4-1.7s-0.2-20.9-0.2-29.2c-0.1-8.1,0.5-40,0.5-41
		c0.1-0.7,0.1-0.9,1.2-1.1s13.7,0,14.8,0c1,0,2.1,0.3,2.9,0.9c0.9,0.6,7.5,6.6,8.4,7.3c0.7,0.6,0.5,0.4,0.5-0.4s0.1-5.7,0-6.7
		c0-1.2,0.2-1.1,1.1-1.1s14.4,0,15.5-0.1c1-0.1,2,0.3,2.7,1.1c1.2,0.9,11.6,10.7,12.4,11.6S445,16,445,17s0.3,25.6,0.3,34.2
		S445.3,87.9,445.2,88.4z M427.1,72c0.1-0.9-0.2-67-0.1-67.7s-0.3-0.7-1.1-0.7l-10.5,0.1c-0.6,0-1.1-0.1-1.1,1
		c0.1,0.9-0.1,24.8-0.1,25.8s-0.1,1.2-1.1,1.3c-0.8,0.1-12.3,0.2-13.2,0.1c-0.7-0.1-1.1-0.2-1.2-1.5S398.4,5,398.5,4.3
		s-0.1-0.8-0.8-0.8h-10.6c-0.5,0-0.8,0-0.8,0.4v33.2c-0.1,17.3-0.1,34.8-0.1,35.2c0.1,0.8-0.1,1.2,0.7,1.2h11.5
		c0.6,0,0.6-0.2,0.6-0.6c0-0.6-0.1-25.5,0-26.4s0.2-1,0.8-1c0.8-0.1,13.1-0.3,13.8-0.3s0.7,0.1,0.7,0.9c0,0.6,0.3,25,0.3,25.9
		c0.1,1.1,0.3,1.4,1,1.4l10.6-0.1C427.1,73.2,427.1,72.9,427.1,72z"/>
	<path class="st2" d="M529.6,85.6c-0.1,1.6-0.7,2-1.5,2s-11.5,0.2-12.4,0.1s-0.9-0.2-1.6-0.6c-0.5-0.3-8.1-6.1-8.8-6.6s-1-0.7-1,0
		c-0.2,0.7-0.8,5.2-1.1,6.2c-0.1,0.9-0.4,1-1.1,1s-6.9,0.1-7.5,0.1c-0.6,0-1.2-0.2-1.7-0.5c-0.5-0.4-9.1-6.8-9.6-7.2
		s-0.7-0.5-0.7,0.1s-0.4,5.7-0.5,6.6s-0.7,1-1.5,1s-14.1,0.1-15.2,0.1c-0.8,0-1.6-0.3-2.2-0.8c-0.7-0.5-11.6-11.5-12-12
		c-0.5-0.5-0.8-1.2-0.8-2c-0.1-0.8,0.3-31.5,0.3-36.9s0.5-33.5,0.6-34.3c0-0.6-0.1-0.6,1.2-0.7s19.1,0,20.2,0
		c0.9-0.1,1.8,0.2,2.4,0.8c0.8,0.7,10.6,9.8,11.8,10.9s0.9,0.7,1.1,0s2.7-9.6,3-10.7s0.3-0.8,1.3-0.9l21.9-0.1
		c0.9-0.2,1.9,0.2,2.4,1l12.7,12.7c0.4,0.5,0.5,0.5,0.6,1.6S529.6,84.2,529.6,85.6z M512.4,37c0-7.5-0.1-32.1-0.1-33
		s0.1-0.7-0.9-0.7s-16.7,0.1-17.3,0.1c-0.8,0-0.9,0.2-1,0.6S483,38,482.8,38.9s-0.4,1.4-1-0.6s-10.3-33.5-10.5-34s-0.3-0.4-0.9-0.4
		s-15.6-0.3-16.2-0.2s-0.9,0-0.9,0.5c0,0.7-0.7,32.4-0.9,38.7s-0.2,10.8-0.2,14.1s0.1,14.8,0.1,15.4s-0.1,1.4,0.6,1.4
		s10.7-0.6,11.2-0.6s0.8,0.1,0.8-0.7s0.1-20,0.1-24.9s0.2-17.9,0.1-19.2s0.4-1,0.8,0.8s10.2,36.7,11,38.7c0.6,2,1,4.2,1.1,4.7
		s-0.2,0.6,0.5,0.6s6.4-0.2,6.8-0.1s0.5,0.2,0.7-0.7s3.9-13.8,6.5-22.2s5.8-19,6.1-20.5s0.6-1.9,0.6,0.1s-0.1,41.9,0,42.8
		s0.1,0.8,0.6,0.8h0.6c0,0,10.8-0.1,11.3-0.2s0.6,0.1,0.6-0.5S512.4,44.7,512.4,37z"/>
	<path class="st2" d="M595.2,30.7c-0.1,0.7-0.1,0.8-0.7,0.9c-0.8,0-21.7-0.2-22.2-0.3c-0.7,0-0.7,0-0.4,0.4s8.5,11.6,8.7,11.9
		c0.2,0.2,0.3,0.6,0.3,0.9c0,0.5,0.3,11.3,0.3,11.8s0,0.6-0.2,0.8s-0.4,0.2-0.1,0.6s13.2,13,13.6,13.5c0.3,0.3,0.4,0.7,0.4,1.1
		c0.1,0.4,0.1,13.9,0.1,14.8s-0.2,1-0.9,1l-43,0.4c-0.4,0-0.7-0.1-1-0.4c-0.4-0.3-13.6-12.6-13.9-12.9s-0.8-0.5-0.8-1.4
		s0.8-69.8,0.7-70.9c-0.1-0.7,0.2-0.9,1.1-1s42.6,0,43.3,0c0.5,0,0.9,0.1,1.3,0.4c0.5,0.3,12.3,10.7,12.9,11.3s0.4,0.7,0.4,1.4
		S595.2,29.9,595.2,30.7z M577.9,4.4c0-0.3,0.1-0.6-0.5-0.6s-38.3-0.3-38.8-0.3s-0.8,0.1-0.8,0.8s-1.1,68.2-0.9,68.7
		c0,0.5,0,0.5,0.5,0.5s39.6-0.4,40.4-0.4c0.6,0,0.5-0.3,0.4-0.7s0-11.6,0-12.1s-0.1-0.6-0.6-0.6s-25.7,0.1-26.3,0.1
		s-0.6-0.3-0.6-0.8s0-13.1,0-13.6s0.2-0.7,0.7-0.8c0.7-0.1,13.2-0.1,13.8-0.1s0.5-0.1,0.5-0.5s0.2-11.7,0.2-12.1s0.1-0.4-0.2-0.4
		l-14.5-0.2c-0.4,0-0.5-0.2-0.5-0.6s-0.1-12.6-0.1-13.3c0-0.2,0.1-0.3,0.6-0.4s25-0.2,25.8-0.3s0.9-0.4,0.9-0.9S578,4.7,577.9,4.4z"
		/>
	<path class="st2" d="M662.8,86.3c-0.1,1.7-0.5,2.2-1,2.4s-14,0-15.2,0c-0.9,0-1.8-0.3-2.5-0.8c-0.8-0.6-9.4-6.1-10.4-6.9
		s-0.9-0.5-0.9,0.3v6.3c0,1.2-0.6,1.1-1.5,1.2s-16.2,0-16.8-0.1c-0.6,0.1-1.2-0.1-1.6-0.5c-0.6-0.6-11.4-10.5-12.2-11.2
		s-0.9-1-0.9-2.1c0-0.9-0.1-28.2-0.1-34.8S600,3.6,600,3c0.1-0.8,0.2-0.9,1.1-1s13.4-0.2,14.6-0.2c0.9-0.1,1.9,0.2,2.6,0.8
		c0.9,0.6,10.4,6,11.8,7.1c1.2,1.1,0.9,0.5,0.9-0.2s0.1-5.9,0.1-6.7c0-1,0.1-1,0.9-1l16.3,0.1c0.9,0,1.9,0.3,2.6,0.9
		c1.9,1.3,3.8,2.8,5.6,4.3c2.8,2.5,3.9,4.1,4.8,4.9s0.9,1.4,1,3.2S662.8,84.7,662.8,86.3z M646.2,72.5c0-0.7-0.3-68.1-0.3-68.6
		c-0.1-0.4-0.4-0.7-0.8-0.6c0,0,0,0,0,0c-0.6,0-11.1,0.4-11.5,0.4s-0.5,0-0.5,0.9v36.8c0,1.3,0.2,2.5-1,0.1s-6.6-16-8.8-20.9
		S616,4.3,615.8,3.9s-0.2-0.6-0.7-0.6s-12.2,0.3-12.9,0.4s-0.5,0.4-0.5,0.7c0.1,0.5,0,29.5-0.1,38.2s0.1,29.5,0.1,30
		s-0.1,0.8,0.4,0.8s11.3-0.2,11.9-0.4c0.7,0,0.9,0.2,0.8-1.1s-0.3-38.5-0.3-40s0.5-0.5,0.7,0.2c0.4,0.6,17.4,40,17.7,40.7
		s0.4,0.9,1,0.9s11.1-0.4,11.7-0.4S646.2,73.2,646.2,72.5z"/>
	<path class="st2" d="M728.1,33.8c0,0.5-0.2,0.9-0.6,0.9l-10.8,0.1c-0.6,0-0.8,0.2-0.8,0.8s-0.4,50.7-0.4,51.7
		c0.1,0.8-0.3,0.9-1.1,1s-17.9,0-18.5-0.1s-1.7-1-2.2-1.5S682.3,75.8,682,75.3c-0.3-0.4-0.5-0.9-0.4-1.4c0.1-0.6-0.1-39.2-0.1-39.7
		s-0.1-0.7-0.6-1.1c-0.3-0.3-13.9-12.9-14.3-13.4c-0.4-0.3-0.5-0.7-0.5-1.2c-0.1-0.3,0-14.6,0-15.2c0-1.5,0.5-1.7,1.3-1.8l47,0.5
		c0.6,0,1.2,0.2,1.7,0.6c0.5,0.4,11.4,10.8,11.7,11.2c0.4,0.4,0.5,0.9,0.5,1.4C728.1,15.9,728.1,33.3,728.1,33.8z M711.8,15.9
		c0-0.3-0.2-3.9-0.2-6.3c0.1-1.9,0.1-3.9-0.1-5.8c0-0.4-0.2-0.4-0.5-0.4s-15,0-22.3,0s-19.7,0.1-20.2,0s-0.6,0.2-0.7,0.5
		c-0.1,0.5,0.2,11.5,0.2,11.9s0.1,0.3,0.4,0.3s14.3,0.2,14.7,0.3c0.3,0.1,0.6,0.4,0.6,0.7c0,0.4,0.5,55.5,0.5,55.8s0.1,0.4,0.2,0.4
		s3.7,0.1,6,0.1s5.6-0.1,5.8-0.1s0.3,0,0.2-0.5c0-0.3-0.2-55-0.1-55.5s0.4-0.8,1-0.8s4.9-0.1,7.6-0.1s6.2-0.1,6.5-0.1
		S711.8,16.3,711.8,15.9z"/>
	<path class="st2" d="M754.5,72.2c0,0.6-0.2,11.6-0.2,12s-0.3,1-0.6,1s-2.1,0.2-3.6,0.2s-5.8-0.2-6.1-0.2c-0.3,0.1-0.7,0-1-0.2
		c-0.3-0.2-1.5-1.3-4.4-4c-2.9-2.9-6.4-6.1-6.7-6.6c-0.4-0.5-0.7-1.1-0.7-1.7c0-0.8,0.3-10,0.4-10.7c0-0.4-0.2-0.7,0.6-0.8
		c0.7-0.1,10.8-0.1,11.7-0.1c0.6,0,1.2,0.2,1.6,0.7c0.4,0.5,8,8.6,8.5,9.2S754.5,71.6,754.5,72.2z M741.9,63.5
		c0-0.6-0.1-0.8-0.5-0.8l-7.7,0.1c-0.5,0-0.6-0.2-0.6,0.2v9.3c0,0.4-0.1,0.8,0.5,0.8s7,0.4,7.6,0.4s0.5-0.2,0.5-0.8
		S741.9,64,741.9,63.5z"/>
	<path class="st2" d="M802.1,29.7c0,0.6-0.5,10.5-0.5,11.2s-0.8,1-1.3,1s-5.6,0.2-7.5,0.2s-8.8,0-9.2-0.1s-0.6,0.1-0.3,0.3
		s3.1,3.2,5,5s4.7,4.3,4.9,4.5c0.2,0.1,0.2,0.3,0.2,0.5c0,0.5,0.2,2.7,0.2,5.1c0.1,1.8,0,3.5-0.1,5.2c-0.1,0.8-0.3,0.8-1,0.8
		s-9.1,0.3-9.5,0.3s-0.5,0.2-0.5,0.6s0.2,6,0.3,9.4s0.2,10,0.2,10.5c0.2,0.6-0.2,0.6-0.4,0.6s-4,0.2-6.5,0.2s-5.9,0-6.5-0.1
		c-0.4,0-0.7-0.2-1-0.4c-0.2-0.2-10.3-8.8-10.8-9.2c-0.4-0.3-0.6-0.9-0.5-1.4c0-0.2-0.1-12.8-0.2-25.7c-0.2-13.9,0-28.1,0-28.4
		s0.1-0.5,0.8-0.5s31.8,0.2,32.8,0.3c0.8-0.1,1.6,0.2,2.2,0.7c0.4,0.4,3.2,2.9,4.8,4.4s3.5,3.5,3.8,3.9
		C801.9,29,802.1,29.4,802.1,29.7z M788.9,30.2c0-0.5,0.2-8.5,0.1-8.9s0-0.3-0.5-0.2s-10.5-0.1-16-0.1s-12.5,0.1-12.9,0.1
		s-0.8-0.1-0.8,0.6c0,0.4-0.2,13,0,25.6s0.1,25,0.1,25.2c0,0.5,0,0.8,0.5,0.8s8.3,0.1,9,0.1s0.7-0.3,0.6-1s-0.5-19.5-0.5-20.2
		s0.3-0.5,0.7-0.5s9.5,0,10-0.1c0.3,0,0.5,0.1,0.5-0.3s-0.2-8.2-0.2-8.7s-0.1-0.6-0.6-0.6l-10.1-0.2c-0.5,0-0.6,0.1-0.6-0.6
		s0.1-9.8,0-10.4c-0.1-0.5,0.2-0.5,0.5-0.5s6.8,0.1,10.7,0.1h9.3C789,30.5,788.9,30.5,788.9,30.2z"/>
	<path class="st2" d="M855.4,37.1c0,0.6-0.2,1.1-0.5,1.7c-0.3,0.6-9.3,21.7-9.8,23c-0.5,1.1-0.9,2.3-1.1,3.5
		c-0.2,1.4-0.3,2.9-0.4,4.3c0,0.8-0.2,14.5-0.2,14.8s-0.1,0.5-0.5,0.5c-0.7,0-14.2,0-15.1-0.1c-0.6,0-1.2-0.2-1.6-0.6l-9.7-9.8
		c-0.2-0.3-0.4-0.7-0.3-1.1c0-0.5,0.2-20.4,0.2-20.8c0-0.7-0.1-1.4-0.3-2.1c-0.2-0.9-12.1-29.3-12.2-29.7s-0.1-0.7,0.5-0.8
		s11.3,0,12-0.1c0.8-0.1,0.8,0.1,1.2,0.5s8.1,7.4,8.7,8s0.6,0.5,0.8,0.1s3.5-8,3.7-8.4s0.2-0.4,0.5-0.4s3.1-0.1,6-0.1
		c3.1,0,5.3,0.1,5.8,0.1s0.5,0.1,0.9,0.5c0.5,0.5,10.5,10.7,10.9,11s0.5,0.5,0.5,1S855.5,36.7,855.4,37.1z M840.9,21l-8.5-0.1
		c-0.4,0-0.5,0-0.6,0.3c-0.2,0.5-7.8,16.9-8,17.3s-0.5,1-1-0.2c-0.4-1.1-7.2-16.4-7.3-16.9s-0.2-0.4-0.6-0.4s-8,0.2-8.3,0.3
		s-0.4,0.1-0.2,0.5s11.3,27.1,11.5,27.8c0.2,0.6,0.3,1.2,0.2,1.9c0,0.5-0.2,20.6-0.2,21.1s0.1,0.7,0.5,0.7s8.8,0.2,9.2,0.1
		s0.5,0.2,0.4-0.6s0.5-21.5,0.5-21.8c0.1-0.3,0.2-0.7,0.4-1c0.2-0.5,12.3-28.1,12.4-28.5S841.2,21,840.9,21z"/>
	<path class="st2" d="M881.8,83.1c0,1.4-0.4,1.3-1,1.3h-11c-0.6,0.1-1.1-0.1-1.5-0.5c-0.5-0.5-8.9-7.8-9.4-8
		c-0.3-0.3-0.6-0.7-0.6-1.1c0-0.6-0.2-15.6-0.2-26.5s0.1-27.5,0.1-28.2c0-0.4-0.1-0.6,0.5-0.7s11.4,0.1,12.1,0.1s0.8,0.1,1.3,0.7
		s9,8,9.5,8.4c0.3,0.2,0.5,0.6,0.5,1V55C882,62.6,881.8,81.8,881.8,83.1z M869.4,72.5c0-0.5-0.1-18.1-0.2-25.7s-0.5-24.4-0.5-25
		s-0.1-1-0.4-1l-8-0.1c-0.5,0-0.5,0-0.5,0.5c0,0.7-0.1,15.8-0.1,24.5s0.1,25.5,0.1,26.2s0.1,0.8,0.5,0.8c1.5,0.4,3,0.6,4.6,0.5
		c2.3,0,3.8,0.1,4,0S869.4,73.1,869.4,72.5z"/>
</g>
<g id="Layer_2">
	<g>
		<g id="XMLID_00000084524272729030958090000016603540727437079179_">
			<g>
				<path class="st3" d="M595.3,10.1c0,2.4,0.2,6,0.2,6.3c0,0.4,0,0.4-0.4,0.4c-0.3,0-3.9,0.1-6.5,0.1c-2.7,0-6.9,0.1-7.6,0.1
					c-0.6,0-1,0.3-1,0.8c-0.1,0.5,0.1,55.2,0.1,55.5c0.1,0.5,0,0.5-0.2,0.5c-0.2,0-3.6,0.1-5.8,0.1c-2.3,0-5.8-0.1-6-0.1
					c-0.1,0-0.2,0-0.2-0.4c0-0.2-0.2-22.3-0.4-38.7c-0.1-9.5-0.1-17-0.1-17.1c0-0.3-0.2-0.6-0.6-0.7c-0.4-0.1-14.4-0.3-14.7-0.3
					c-0.3,0-0.4,0-0.4-0.3c0-0.4-0.3-11.4-0.2-11.9c0.1-0.3,0.1-0.6,0.7-0.5c0.5,0.1,12.9,0.1,20.2,0c7.3,0,22.1,0.1,22.3,0
					c0.3,0,0.5,0,0.5,0.4S595.5,7.7,595.3,10.1z"/>
				<path class="st3" d="M529.6,4.3c0,0.5,0.3,67.9,0.3,68.6c0,0.7-0.1,0.8-0.6,0.8c-0.6,0-11.1,0.4-11.7,0.4c-0.6,0-0.6-0.2-1-0.9
					c-0.3-0.7-17.3-40.1-17.7-40.7c-0.2-0.7-0.7-1.8-0.7-0.2c0,1.5,0.3,38.7,0.3,40c0.1,1.3-0.1,1.1-0.8,1.1
					c-0.6,0.2-11.4,0.4-11.9,0.4s-0.4-0.2-0.4-0.8c0-0.5-0.2-21.3-0.1-30c0.1-8.7,0.2-37.7,0.1-38.2c0-0.3-0.2-0.6,0.5-0.7
					c0.7-0.1,12.5-0.4,12.9-0.4c0.5,0,0.5,0.1,0.7,0.6c0.2,0.4,5.3,11.9,7.5,16.7c2.2,4.9,7.7,18.5,8.8,20.9c1.2,2.4,1,1.2,1-0.1
					c0-1.2,0-35.8,0-36.8c0-0.9,0.2-0.9,0.5-0.9c0.4,0,10.9-0.4,11.5-0.4C529.3,3.8,529.5,4,529.6,4.3z"/>
				<path class="st3" d="M449.6,32.4c0,0.4-0.2,11.7-0.2,12.1c0,0.4,0,0.5-0.5,0.5c-0.6,0-13.1,0-13.8,0.1c-0.5,0.1-0.8,0.4-0.7,0.8
					c0,0.5-0.1,13,0,13.6c0,0.5,0.1,0.7,0.6,0.8c0.6,0,25.7,0,26.3-0.1c0.5,0,0.6,0.1,0.6,0.6s-0.1,11.6,0,12.1
					c0.1,0.4,0.2,0.7-0.4,0.7c-0.8,0-39.9,0.3-40.4,0.4c-0.5,0-0.5,0-0.5-0.5c-0.2-0.5,0.9-67.9,0.9-68.7c0-0.7,0.2-0.8,0.8-0.8
					c0.5,0,38.3,0.2,38.8,0.3c0.6,0,0.5,0.3,0.5,0.6c0.1,0.3,0.1,10.9,0,11.4c0,0.5,0,0.7-0.9,0.9c-0.8,0.1-25.3,0.3-25.8,0.3
					c-0.5,0.1-0.6,0.2-0.6,0.4c0,0.7,0.1,12.9,0.1,13.3s0.1,0.6,0.5,0.6c0.5,0,14.2,0.2,14.5,0.2C449.7,32,449.7,31.9,449.6,32.4z"
					/>
				<path class="st3" d="M396.1,37.5c0,7.7,0,35.1-0.1,35.7c0,0.6,0,0.5-0.6,0.5c-0.5,0.1-11.3,0.2-11.3,0.2s0,0-0.6,0
					c-0.5,0-0.6,0-0.6-0.8c-0.1-0.9,0-40.8,0-42.8s-0.2-1.5-0.6-0.1c-0.3,1.5-3.5,12.2-6.1,20.5c-2.6,8.4-6.2,21.2-6.5,22.2
					c-0.2,0.9-0.3,0.7-0.7,0.7c-0.4-0.1-6.2,0.1-6.8,0.1c-0.7,0-0.5-0.2-0.5-0.6c-0.1-0.5-0.5-2.7-1.1-4.7c-0.8-2-10.5-36.9-11-38.7
					c-0.4-1.8-0.8-2.1-0.8-0.8c0.1,1.3,0,14.4-0.1,19.2c0,4.9-0.1,24-0.1,24.9c0,0.8-0.3,0.7-0.8,0.7s-10.6,0.5-11.2,0.6
					c-0.7,0-0.5-0.8-0.6-1.4c0-0.6-0.2-12.2-0.1-15.4c0-1,0-2.2,0-3.5c0-2.8,0.1-6.2,0.2-10.6c0.2-6.3,0.9-38,0.9-38.7
					c0-0.5,0.2-0.5,0.9-0.5c0.6-0.1,15.7,0.2,16.2,0.2c0.6,0,0.8-0.1,0.9,0.4c0.2,0.5,9.8,31.9,10.5,34c0.6,2,0.7,1.5,1,0.6
					c0.2-0.9,10.2-34.4,10.3-34.9c0.1-0.4,0.2-0.6,1-0.6c0.6,0,16.3,0,17.3-0.1c1,0,0.8-0.1,0.9,0.7C396,5.3,396.1,30,396.1,37.5z"
					/>
				<path class="st3" d="M313.3,10.1c0,2.4,0.2,6,0.2,6.3c0,0.4,0,0.4-0.4,0.4c-0.3,0-3.9,0.1-6.5,0.1c-2.7,0-6.9,0.1-7.6,0.1
					c-0.6,0-1,0.3-1,0.8c-0.1,0.5,0.1,55.2,0.1,55.5c0.1,0.5,0,0.5-0.2,0.5c-0.2,0-3.6,0.1-5.8,0.1c-2.3,0-5.8-0.1-6-0.1
					c-0.1,0-0.2,0-0.2-0.4c0-0.2-0.2-22.3-0.4-38.7c-0.1-9.5-0.1-17-0.1-17.1c0-0.3-0.2-0.6-0.6-0.7c-0.4-0.1-14.4-0.3-14.7-0.3
					c-0.3,0-0.4,0-0.4-0.3c0-0.4-0.3-11.4-0.2-11.9c0.1-0.3,0.1-0.6,0.7-0.5c0.5,0.1,12.9,0.1,20.2,0c7.3,0,22.1,0.1,22.3,0
					c0.3,0,0.5,0,0.5,0.4S313.5,7.7,313.3,10.1z"/>
				<path class="st3" d="M252.2,45c0.6,0,0.5,0.1,0.5,0.5c-0.1,0.6,0.8,11.2-3.2,17.5c-3.8,6.1-8.1,10.2-15.3,10.8
					c-7.2,0.5-13.9-1.4-18.1-5.2c-4.1-3.6-6.3-7.3-6.6-12.7c-0.6-5.2-0.5-17-0.5-25.3c0.1-8.1,0.1-10.4,0.9-13.7
					c1-3.1,2.6-6.5,5.8-9.5c2.9-2.8,6.4-4.9,10.1-5c3.6-0.2,6.8-0.4,10.5,0.6c3.7,1.1,9.8,3.5,12.6,8.4c2.7,4.9,3.2,7,3.4,9.9
					c0.2,3.2,0.2,8.2,0.2,8.8s0.1,0.6-0.3,0.7c-0.5,0-12.9,0.2-13.2,0.2c-0.4,0-0.4-0.4-0.5-0.6c-0.1-0.7,0.3-6.7-0.5-9.4
					c-0.6-2.6-1.5-3.3-3.1-4.4c-1.7-0.9-5.2-1.3-7.5,0c-2,1.7-3.6,3.3-3.8,7.5c-0.2,4.2-0.5,20.1-0.6,25.3c0,5,0.8,8.3,3.5,10.2
					c2.5,1.7,6.7,1.2,8.6-0.3c1.9-1.8,3-3.2,3.3-6.5c0.2-3.1,0.3-6.6,0.3-7.3c0-0.6,0.1-0.7,0.6-0.6C239.7,44.9,251.4,45,252.2,45z"
					/>
				<path class="st3" d="M185.8,72.7c0.1,0.8-0.2,1-0.6,1.1c-0.3,0.1-2.3,0-5.4,0c-3.1,0-5.6-0.5-6.1-0.7c-0.5-0.1-0.5-0.3-0.6-1.1
					c0-0.9-0.2-23.5-0.1-34.9c0-11.5,0.1-31.7,0.1-32.6c0-0.7,0.1-0.7,0.7-0.7c0.6,0,10.3,0.1,10.7,0.1s0.5,0.5,0.5,1.3
					s0.5,23.2,0.6,33.3C185.7,48.6,185.8,72,185.8,72.7z"/>
				<path class="st3" d="M148.8,22.2c0.1,4.1,0.1,17.3,0,22.2c-0.1,5-0.1,9.2-0.2,11.6c-0.2,2.4-0.8,4.7-2.3,7.4
					c-1.5,2.8-3.1,5.1-7.1,7.6c-4,2.4-6.5,2.3-12.3,2.6c-5.8,0.4-17.1,0.3-17.5,0.2c-0.3-0.2-0.2-0.2-0.2-0.7
					c0.1-0.4,0.2-38,0.2-41.8c0-3.6,0.4-26.7,0.4-27c0-0.4,0.3-0.2,1-0.2c0.7,0,18.1,0.1,21.3,0.4c3.2,0.3,7.8,2.2,10.9,5.4
					C146.2,13.1,148.7,18.1,148.8,22.2z M136.6,39c0-5.2,0.2-11.8,0-13.5c-0.2-1.6-0.4-3.7-2.3-5.8c-2-1.9-4.3-2.4-5.4-2.5
					c-1.2-0.1-2.1-0.2-3.7-0.2c-1.5,0.1-2.8,0.3-3,0.4c-0.2,0.1-0.4,0.2-0.4,0.6c0,0.4-0.3,42.1-0.3,42.4s0.5,0.6,1.2,0.8
					c0.7,0.2,6.2,0.4,7.7,0c1.6-0.4,2.6-0.8,3.6-2c1-1.1,1.8-2.1,2-3.6C136.3,54.2,136.6,44.2,136.6,39z"/>
				<path class="st3" d="M85.6,4.3c0,0.5,0.3,67.9,0.3,68.6c0,0.7-0.1,0.8-0.6,0.8c-0.6,0-11.1,0.4-11.7,0.4s-0.6-0.2-1-0.9
					c-0.3-0.7-17.3-40.1-17.7-40.7c-0.2-0.7-0.7-1.8-0.7-0.2c0,1.5,0.3,38.7,0.3,40c0.1,1.3-0.1,1.1-0.8,1.1
					c-0.6,0.2-11.4,0.4-11.9,0.4s-0.4-0.2-0.4-0.8c0-0.5-0.2-21.3-0.1-30c0.1-8.7,0.2-37.7,0.1-38.2c0-0.3-0.2-0.6,0.5-0.7
					c0.7-0.1,12.5-0.4,12.9-0.4c0.5,0,0.5,0.1,0.7,0.6c0.2,0.4,5.3,11.9,7.5,16.7c2.2,4.9,7.7,18.5,8.8,20.9c1.2,2.4,1,1.2,1-0.1
					c0-1.2,0-35.8,0-36.8c0-0.9,0.2-0.9,0.5-0.9c0.4,0,10.9-0.4,11.5-0.4C85.3,3.8,85.5,4,85.6,4.3z"/>
				<path class="st3" d="M17.5,72.7c0.1,0.8-0.2,1-0.6,1.1c-0.3,0.1-2.3,0-5.4,0s-5.6-0.5-6.1-0.7C4.9,73,4.9,72.8,4.8,72
					c0-0.9-0.2-23.5-0.1-34.9c0-11.5,0.1-31.7,0.1-32.6c0-0.7,0.1-0.7,0.7-0.7s10.3,0.1,10.7,0.1c0.4,0,0.5,0.5,0.5,1.3
					s0.5,23.2,0.6,33.3C17.4,48.6,17.5,72,17.5,72.7z"/>
				<path d="M594.7,2.4c2,0,3.3,0,3.4,0c0.6,0,1.3,0.2,1.7,0.6c0.5,0.4,11.4,10.8,11.7,11.2c0.3,0.3,0.5,0.7,0.5,1.4
					c-0.2,0.7-0.2,18.1-0.2,18.6s-0.2,0.9-0.6,0.9c-0.4,0-10.4,0.1-10.8,0.1c-0.6,0-0.8,0.2-0.8,0.8c0,0.5-0.4,50.7-0.4,51.7
					c0.1,0.8-0.3,0.9-1.1,1c-0.8,0-17.9,0-18.5-0.1c-0.7,0-1.7-1-2.2-1.5c-0.5-0.4-11.4-10.9-11.7-11.4c-0.3-0.3-0.4-0.7-0.4-1.4
					c0.1-0.6-0.1-37.9-0.1-39.6l2.3,0c0.2,16.3,0.4,38.5,0.4,38.7c0,0.4,0.1,0.4,0.2,0.4c0.2,0,3.7,0.1,6,0.1c2.2,0,5.6-0.1,5.8-0.1
					c0.2,0,0.3,0,0.2-0.5c0-0.3-0.2-55-0.1-55.5c0-0.5,0.4-0.8,1-0.8c0.7,0,4.9-0.1,7.6-0.1c2.6,0,6.2-0.1,6.5-0.1
					c0.4,0,0.4,0,0.4-0.4c0-0.3-0.2-3.9-0.2-6.3c0.2-2.4-0.1-5.4-0.1-5.8s-0.2-0.4-0.5-0.4L594.7,2.4z"/>
				<path d="M551.1,2c0.6,0,32.9,0.3,43.6,0.5l0,1.4c-0.2,0.1-15,0-22.3,0c-7.3,0.1-19.7,0.1-20.2,0c-0.6-0.1-0.6,0.2-0.7,0.5
					c-0.1,0.5,0.2,11.5,0.2,11.9c0,0.3,0.1,0.3,0.4,0.3c0.3,0,14.3,0.2,14.7,0.3c0.4,0.1,0.6,0.4,0.6,0.7c0,0.1,0.1,7.7,0.1,17.1
					l-2.3,0c0,0,0-0.1,0-0.1c0-0.6-0.1-0.7-0.6-1.1c-0.3-0.3-13.9-12.9-14.3-13.4c-0.5-0.4-0.5-0.9-0.5-1.2c-0.1-0.3,0-14.6,0-15.2
					C549.8,2.2,550.3,2,551.1,2z"/>
				<path d="M528.8,3.8c-0.6,0-11.1,0.4-11.5,0.4c-0.3,0-0.5,0-0.5,0.9c0,1,0,35.6,0,36.8c0,1.3,0.2,2.5-1,0.1
					c-1.1-2.4-6.6-16-8.8-20.9c-2.2-4.8-7.3-16.3-7.5-16.7c-0.2-0.5-0.2-0.6-0.7-0.6l0-1.5c0.3,0,0.5,0,0.6,0
					c1.2-0.1,1.7,0.3,2.6,0.8c0.9,0.6,10.4,6,11.8,7.1c1.2,1.1,0.9,0.5,0.9-0.2c0-0.8,0.1-5.9,0.1-6.7c0-1,0.1-1,0.9-1
					c0.7,0,8.5,0.1,13.1,0.1L528.8,3.8z"/>
				<path d="M498.8,3.8c-0.4,0-12.2,0.3-12.9,0.4c-0.7,0.1-0.5,0.4-0.5,0.7c0.1,0.5,0,29.5-0.1,38.2c-0.1,8.7,0.1,29.5,0.1,30
					c0,0.6-0.1,0.8,0.4,0.8s11.3-0.2,11.9-0.4c0.7,0,0.9,0.2,0.8-1.1c0-1.3-0.3-38.5-0.3-40c0-1.6,0.5-0.5,0.7,0.2
					c0.4,0.6,17.4,40,17.7,40.7c0.4,0.7,0.4,0.9,1,0.9c0.6,0,11.1-0.4,11.7-0.4c0.5,0,0.6-0.1,0.6-0.8c0-0.7-0.3-68.1-0.3-68.6
					c-0.1-0.4-0.3-0.6-0.8-0.6l0-1.4c1.6,0,2.8,0,3.2,0c1.4,0.1,1.8,0.3,2.6,0.9c0.6,0.4,2.8,1.9,5.6,4.3c2.8,2.5,3.9,4.1,4.8,4.9
					c1,0.9,0.9,1.4,1,3.2c0.1,1.7,0.5,69.5,0.5,71.1c-0.1,1.7-0.5,2.2-1,2.4c-0.6,0.1-14,0-15.2,0c-1-0.1-1.5-0.2-2.5-0.8
					c-0.8-0.6-9.4-6.1-10.4-6.9c-0.9-0.8-0.9-0.5-0.9,0.3c0,1,0,5.2,0,6.3c0,1.2-0.6,1.1-1.5,1.2s-16.2,0-16.8-0.1
					c-0.6,0-0.9,0-1.6-0.5c-0.6-0.6-11.4-10.5-12.2-11.2c-0.8-0.6-0.9-1-0.9-2.1c0-0.9-0.1-28.2-0.1-34.8c0.1-6.7,0.3-36.5,0.3-37.1
					c0.1-0.8,0.2-0.9,1.1-1c0.8-0.1,11.1-0.2,14-0.2L498.8,3.8z"/>
				<path d="M461.6,16.2c0.1-0.5,0.1-11.1,0-11.4c0-0.3,0.1-0.6-0.5-0.6C460.6,4.2,422.8,4,422.3,4c-0.6,0-0.8,0.1-0.8,0.8
					c0,0.8-1.1,68.2-0.9,68.7c0,0.5,0,0.5,0.5,0.5c0.5-0.1,39.6-0.4,40.4-0.4c0.6,0,0.5-0.3,0.4-0.7c-0.1-0.5,0-11.6,0-12.1
					s-0.1-0.6-0.6-0.6c-0.6,0.1-25.7,0.1-26.3,0.1c-0.5-0.1-0.6-0.3-0.6-0.8c-0.1-0.6,0-13.1,0-13.6c-0.1-0.4,0.2-0.7,0.7-0.8
					c0.7-0.1,13.2-0.1,13.8-0.1c0.5,0,0.5-0.1,0.5-0.5c0-0.4,0.2-11.7,0.2-12.1c0.1-0.5,0.1-0.4-0.2-0.4c-0.3,0-14-0.2-14.5-0.2
					c-0.4,0-0.5-0.2-0.5-0.6s-0.1-12.6-0.1-13.3c0-0.2,0.1-0.3,0.6-0.4c0.5,0,25-0.2,25.8-0.3C461.6,17,461.6,16.8,461.6,16.2z
					 M420.9,2.3c0.8-0.2,42.6,0,43.3,0c0.6,0,0.8,0.1,1.3,0.4s12.3,10.7,12.9,11.3c0.6,0.6,0.4,0.7,0.4,1.4
					c-0.1,0.6,0.1,14.9,0.1,15.7c-0.1,0.7-0.1,0.8-0.7,0.9c-0.8,0-21.7-0.2-22.2-0.3c-0.7,0-0.7,0-0.4,0.4
					c0.4,0.5,8.5,11.6,8.7,11.9c0.3,0.4,0.3,0.5,0.3,0.9c0,0.5,0.3,11.3,0.3,11.8c0,0.4,0,0.6-0.2,0.8c-0.2,0.1-0.4,0.2-0.1,0.6
					c0.3,0.3,13.2,13,13.6,13.5c0.3,0.5,0.4,0.6,0.4,1.1c0.1,0.4,0.1,13.9,0.1,14.8c0,0.9-0.2,1-0.9,1c-0.8,0-42.5,0.4-43,0.4
					s-0.6-0.1-1-0.4c-0.4-0.3-13.6-12.6-13.9-12.9c-0.2-0.3-0.8-0.5-0.8-1.4s0.8-69.8,0.7-70.9C419.7,2.7,420,2.5,420.9,2.3z"/>
				<path d="M376,1.8c0.8,0,13.3-0.1,19.1-0.1l0,2.1c-1,0.1-16.7,0.1-17.3,0.1c-0.8,0-0.9,0.2-1,0.6c-0.1,0.5-10.1,34-10.3,34.9
					c-0.3,0.9-0.4,1.4-1-0.6c-0.7-2.1-10.3-33.5-10.5-34c-0.1-0.5-0.3-0.4-0.9-0.4c-0.5,0-15.6-0.3-16.2-0.2c-0.7,0-0.9,0-0.9,0.5
					c0,0.7-0.7,32.4-0.9,38.7c-0.1,4.4-0.1,7.8-0.2,10.6h-1.7c0.1-7.5,0.2-14.9,0.2-17.3c0.1-5.4,0.5-33.5,0.6-34.3
					c0-0.6-0.1-0.6,1.2-0.7c1.2-0.1,19.1,0,20.2,0s1.5,0.1,2.4,0.8c0.8,0.7,10.6,9.8,11.8,10.9c1.1,1.1,0.9,0.7,1.1,0
					c0.1-0.6,2.7-9.6,3-10.7C375,1.6,375,1.9,376,1.8z"/>
				<path d="M395.1,1.7c1.5,0,2.5,0,2.8,0c1.4,0,1.7,0.2,2.4,1c0.8,0.8,12.2,12.2,12.7,12.7c0.4,0.5,0.5,0.5,0.6,1.6
					c0,1.1-0.3,67.7-0.3,69.1c-0.1,1.6-0.7,2-1.5,2c-0.7,0-11.5,0.2-12.4,0.1c-0.9,0-0.9-0.2-1.6-0.6c-0.5-0.3-8.1-6.1-8.8-6.6
					c-0.6-0.5-1-0.7-1,0c-0.2,0.7-0.8,5.2-1.1,6.2c-0.1,0.9-0.4,1-1.1,1c-0.7,0.1-6.9,0.1-7.5,0.1c-0.6,0-1.1-0.1-1.7-0.5
					c-0.5-0.4-9.1-6.8-9.6-7.2c-0.6-0.4-0.7-0.5-0.7,0.1c-0.1,0.7-0.4,5.7-0.5,6.6c-0.1,0.9-0.7,1-1.5,1c-0.9,0.1-14.1,0.1-15.2,0.1
					c-1.2,0-1.4-0.3-2.2-0.8c-0.7-0.5-11.6-11.5-12-12c-0.5-0.5-0.8-1.1-0.8-2c-0.1-0.4,0-10.1,0.1-19.5h1.7c0,1.3,0,2.4,0,3.5
					c-0.1,3.2,0.1,14.8,0.1,15.4c0.1,0.6-0.1,1.4,0.6,1.4c0.6-0.1,10.7-0.6,11.2-0.6s0.8,0.1,0.8-0.7c0-0.9,0.1-20,0.1-24.9
					c0.1-4.8,0.2-17.9,0.1-19.2c0-1.3,0.4-1,0.8,0.8c0.5,1.8,10.2,36.7,11,38.7c0.6,2,1,4.2,1.1,4.7c0,0.4-0.2,0.6,0.5,0.6
					c0.6,0,6.4-0.2,6.8-0.1c0.4,0,0.5,0.2,0.7-0.7c0.3-1,3.9-13.8,6.5-22.2c2.6-8.3,5.8-19,6.1-20.5c0.4-1.4,0.6-1.9,0.6,0.1
					s-0.1,41.9,0,42.8c0,0.8,0.1,0.8,0.6,0.8c0.6,0,0.6,0,0.6,0s10.8-0.1,11.3-0.2c0.6,0,0.6,0.1,0.6-0.5c0.1-0.6,0.1-28,0.1-35.7
					c0-7.5-0.1-32.1-0.1-33c-0.1-0.8,0.1-0.7-0.9-0.7L395.1,1.7z"/>
				<path d="M312.7,2.4c2,0,3.3,0,3.4,0c0.6,0,1.3,0.2,1.7,0.6c0.5,0.4,11.4,10.8,11.7,11.2c0.3,0.3,0.5,0.7,0.5,1.4
					c-0.2,0.7-0.2,18.1-0.2,18.6s-0.2,0.9-0.6,0.9c-0.4,0-10.4,0.1-10.8,0.1c-0.6,0-0.8,0.2-0.8,0.8c0,0.5-0.4,50.7-0.4,51.7
					c0.1,0.8-0.3,0.9-1.1,1c-0.8,0-17.9,0-18.5-0.1c-0.7,0-1.7-1-2.2-1.5c-0.5-0.4-11.4-10.9-11.7-11.4c-0.3-0.3-0.4-0.7-0.4-1.4
					c0.1-0.6-0.1-37.9-0.1-39.6l2.3,0c0.2,16.3,0.4,38.5,0.4,38.7c0,0.4,0.1,0.4,0.2,0.4c0.2,0,3.7,0.1,6,0.1c2.2,0,5.6-0.1,5.8-0.1
					c0.2,0,0.3,0,0.2-0.5c0-0.3-0.2-55-0.1-55.5c0-0.5,0.4-0.8,1-0.8c0.7,0,4.9-0.1,7.6-0.1c2.6,0,6.2-0.1,6.5-0.1
					c0.4,0,0.4,0,0.4-0.4c0-0.3-0.2-3.9-0.2-6.3c0.2-2.4-0.1-5.4-0.1-5.8s-0.2-0.4-0.5-0.4L312.7,2.4z"/>
				<path d="M282.6,33.6c-0.3-0.3-13.9-12.9-14.3-13.4c-0.5-0.4-0.5-0.9-0.5-1.2c-0.1-0.3,0-14.6,0-15.2c0-1.5,0.5-1.7,1.3-1.8
					c0.6,0,32.9,0.3,43.6,0.5l0,1.4c-0.2,0.1-15,0-22.3,0c-7.3,0.1-19.7,0.1-20.2,0c-0.6-0.1-0.6,0.2-0.7,0.5
					c-0.1,0.5,0.2,11.5,0.2,11.9c0,0.3,0.1,0.3,0.4,0.3c0.3,0,14.3,0.2,14.7,0.3c0.4,0.1,0.6,0.4,0.6,0.7c0,0.1,0.1,7.7,0.1,17.1
					l-2.3,0c0,0,0-0.1,0-0.1C283.2,34.1,283.1,34,282.6,33.6z"/>
				<path d="M248.9,11.4c-2.8-4.9-8.9-7.3-12.6-8.4c-3.7-1-6.9-0.8-10.5-0.6c-3.7,0.1-7.2,2.2-10.1,5c-3.2,3-4.8,6.4-5.8,9.5
					c-0.8,3.3-0.8,5.6-0.9,13.7c0,8.3-0.1,20.1,0.5,25.3c0.3,5.4,2.5,9.1,6.6,12.7c4.2,3.8,10.9,5.7,18.1,5.2
					c7.2-0.6,11.5-4.7,15.3-10.8c4-6.3,3.1-16.9,3.2-17.5c0-0.4,0.1-0.5-0.5-0.5c-0.8,0-12.5-0.1-12.9-0.1c-0.5-0.1-0.6,0-0.6,0.6
					c0,0.7-0.1,4.2-0.3,7.3c-0.3,3.3-1.4,4.7-3.3,6.5c-1.9,1.5-6.1,2-8.6,0.3c-2.7-1.9-3.5-5.2-3.5-10.2c0.1-5.2,0.4-21.1,0.6-25.3
					c0.2-4.2,1.8-5.8,3.8-7.5c2.3-1.3,5.8-0.9,7.5,0c1.6,1.1,2.5,1.8,3.1,4.4c0.8,2.7,0.4,8.7,0.5,9.4c0.1,0.2,0.1,0.6,0.5,0.6
					c0.3,0,12.7-0.2,13.2-0.2c0.4-0.1,0.3-0.1,0.3-0.7s0-5.6-0.2-8.8C252.1,18.4,251.6,16.2,248.9,11.4z M235.7,0.9
					c4.5,0.6,8.7,3,14.5,7c5.9,4.2,12.4,11.8,14.1,13.8c1.9,2.4,3.1,5.3,3.8,7.2c0.7,1.9,1.1,5.9,1.1,8.3c0,2.5-0.2,9.7-0.2,10.3
					c0,0.8-0.3,0.4-1,0.4s-6.9,0-7.7,0.1c-0.3,0-0.3,0,0,0.6c0.5,0.7,2.1,2.5,3.5,4.6c1.9,2.1,2.9,3.3,3.6,4.4
					c0.9,1.2,0.9,1.6,1,2.1c0.2,0.5,0.4,3.9,0.4,7c0,3.3-0.2,10-1.7,14.9c-1.2,4.6-4.5,6.9-8.3,8.1c-3.8,1.2-10.9,0.8-13.9,0.6
					c-3-0.2-5.8-0.6-11.6-3.3c-5.7-2.6-13-9.3-18.5-15.7c-5-6.5-6.2-11.6-6.7-15.2c-0.5-3.7-0.4-27.5-0.1-35.2
					c0.3-7.6,3.1-11,6-14.4c2.8-3.5,8.2-5.3,9.9-5.8C226,0.2,231,0.4,235.7,0.9z"/>
				<path d="M184.5,3.8c-0.4,0-10.1-0.1-10.7-0.1c-0.6,0-0.7,0-0.7,0.7c0,0.9-0.1,21.1-0.1,32.6c-0.1,11.4,0.1,34,0.1,34.9
					c0.1,0.8,0.1,1,0.6,1.1c0.5,0.2,3,0.7,6.1,0.7c3.1,0,5.1,0.1,5.4,0c0.4-0.1,0.7-0.3,0.6-1.1c0-0.7-0.1-24.1-0.2-34.2
					C185.5,28.4,185,5.9,185,5.2S184.9,3.8,184.5,3.8z M171.5,1.6c0.7-0.1,15.2,0.1,16.1,0.1c0.9,0,1.1,0.2,1.7,0.9
					c0.5,0.5,12,10.6,12.7,11.2c0.5,0.5,0.6,0.7,0.7,1.3c0,0.7,0,23.9,0,34.1s-0.3,35.8-0.3,37.5c0,1.9-0.5,1.7-1.3,1.7
					c-0.7,0-13.9,0-14.7,0c-0.8,0-1.3,0-2-0.7c-0.7-0.7-11.9-10.4-12.5-10.7c-0.5-0.5-0.7-0.8-0.8-1.5c0-0.8-0.3-20.8-0.3-35.4
					c0-14.5,0.1-36.6,0.1-37.6C170.9,2,170.8,1.8,171.5,1.6z"/>
				<path d="M136.6,25.5c0.2,1.7,0,8.3,0,13.5s-0.3,15.2-0.6,16.6c-0.2,1.5-1,2.5-2,3.6c-1,1.2-2,1.6-3.6,2c-1.5,0.4-7,0.2-7.7,0
					c-0.7-0.2-1.2-0.5-1.2-0.8s0.3-42,0.3-42.4c0-0.4,0.2-0.5,0.4-0.6c0.2-0.1,1.5-0.3,3-0.4c1.6,0,2.5,0.1,3.7,0.2
					c1.1,0.1,3.4,0.6,5.4,2.5C136.2,21.8,136.4,23.9,136.6,25.5z"/>
				<path d="M143,9.9c-3.1-3.2-7.7-5.1-10.9-5.4c-3.2-0.3-20.6-0.4-21.3-0.4c-0.7,0-1-0.2-1,0.2c0,0.3-0.4,23.4-0.4,27
					c0,3.8-0.1,41.4-0.2,41.8c0,0.5-0.1,0.5,0.2,0.7c0.4,0.1,11.7,0.2,17.5-0.2c5.8-0.3,8.3-0.2,12.3-2.6c4-2.5,5.6-4.8,7.1-7.6
					c1.5-2.7,2.1-5,2.3-7.4c0.1-2.4,0.1-6.6,0.2-11.6c0.1-4.9,0.1-18.1,0-22.2C148.7,18.1,146.2,13.1,143,9.9z M128.8,2.3
					c3.7,0.1,6-0.1,10.3,2c4.4,1.9,8.9,6,11.2,8.1c2.4,2.1,5.4,5.1,8.2,8.9c2.8,3.8,5.1,8.1,5.9,10c0.9,1.9,1,2.9,1.2,6.1
					c0.1,3.1,0.1,14.8,0.1,21s0.2,12.1-0.3,16.5c-0.4,4.4-1.6,6.1-4.4,9.2c-2.7,3.2-5.6,4-9,4.4c-3.5,0.4-28.2,0.1-29.5,0
					c-1.2-0.1-1.1,0-1.9-0.6c-0.9-0.8-12.1-11.8-12.6-12.2c-0.5-0.5-0.4-0.6-0.5-1.5c0-1,0.1-18.1,0.1-26.4
					c0.1-8.4,0.5-43.9,0.6-44.8c0-0.6,0-0.7,1.1-0.8C110.3,2.2,124.9,2.2,128.8,2.3z"/>
				<path d="M55.4,2.2C56.6,2.2,57.1,2.5,58,3c0.9,0.6,10.4,6,11.8,7.1c1.2,1.1,0.9,0.5,0.9-0.2c0-0.8,0.1-5.9,0.1-6.7
					c0-1,0.1-1,0.9-1c0.7,0,8.5,0.1,13.1,0.1l0,1.4c-0.6,0-11.1,0.4-11.5,0.4c-0.3,0-0.5,0-0.5,0.9c0,1,0,35.6,0,36.8
					c0,1.3,0.2,2.5-1,0.1c-1.1-2.4-6.6-16-8.8-20.9c-2.2-4.8-7.3-16.3-7.5-16.7c-0.2-0.5-0.2-0.6-0.7-0.6l0-1.5
					C55.1,2.2,55.3,2.2,55.4,2.2z"/>
				<path d="M54.8,3.8c-0.4,0-12.2,0.3-12.9,0.4c-0.7,0.1-0.5,0.4-0.5,0.7c0.1,0.5,0,29.5-0.1,38.2c-0.1,8.7,0.1,29.5,0.1,30
					c0,0.6-0.1,0.8,0.4,0.8s11.3-0.2,11.9-0.4c0.7,0,0.9,0.2,0.8-1.1c0-1.3-0.3-38.5-0.3-40c0-1.6,0.5-0.5,0.7,0.2
					c0.4,0.6,17.4,40,17.7,40.7c0.4,0.7,0.4,0.9,1,0.9s11.1-0.4,11.7-0.4c0.5,0,0.6-0.1,0.6-0.8c0-0.7-0.3-68.1-0.3-68.6
					c-0.1-0.4-0.3-0.6-0.8-0.6l0-1.4c1.6,0,2.8,0,3.2,0c1.4,0.1,1.8,0.3,2.6,0.9c0.6,0.4,2.8,1.9,5.6,4.3c2.8,2.5,3.9,4.1,4.8,4.9
					c1,0.9,0.9,1.4,1,3.2c0.1,1.7,0.5,69.5,0.5,71.1c-0.1,1.7-0.5,2.2-1,2.4c-0.6,0.1-14,0-15.2,0c-1-0.1-1.5-0.2-2.5-0.8
					c-0.8-0.6-9.4-6.1-10.4-6.9c-0.9-0.8-0.9-0.5-0.9,0.3c0,1,0,5.2,0,6.3c0,1.2-0.6,1.1-1.5,1.2s-16.2,0-16.8-0.1
					c-0.6,0-0.9,0-1.6-0.5C52,88.1,41.2,78.2,40.4,77.5c-0.8-0.6-0.9-1-0.9-2.1c0-0.9-0.1-28.2-0.1-34.8c0.1-6.7,0.3-36.5,0.3-37.1
					c0.1-0.8,0.2-0.9,1.1-1c0.8-0.1,11.1-0.2,14-0.2L54.8,3.8z"/>
				<path d="M16.2,3.8c-0.4,0-10.1-0.1-10.7-0.1s-0.7,0-0.7,0.7c0,0.9-0.1,21.1-0.1,32.6C4.6,48.5,4.8,71.1,4.8,72
					c0.1,0.8,0.1,1,0.6,1.1c0.5,0.2,3,0.7,6.1,0.7s5.1,0.1,5.4,0c0.4-0.1,0.7-0.3,0.6-1.1c0-0.7-0.1-24.1-0.2-34.2
					c-0.1-10.1-0.6-32.5-0.6-33.3S16.6,3.8,16.2,3.8z M3.2,1.6c0.7-0.1,15.2,0.1,16.1,0.1c0.9,0,1.1,0.2,1.7,0.9
					c0.5,0.5,12,10.6,12.7,11.2c0.5,0.5,0.6,0.7,0.7,1.3c0,0.7,0,23.9,0,34.1s-0.3,35.8-0.3,37.5c0,1.9-0.5,1.7-1.3,1.7
					c-0.7,0-13.9,0-14.7,0c-0.8,0-1.3,0-2-0.7C15.4,87.1,4.2,77.4,3.6,77.1c-0.5-0.5-0.7-0.8-0.8-1.5c0-0.8-0.3-20.8-0.3-35.4
					c0-14.5,0.1-36.6,0.1-37.6C2.6,2,2.5,1.8,3.2,1.6z"/>
			</g>
		</g>
	</g>
	<g>
		<polygon class="st3" points="733.8,20.5 733.9,73.5 746.2,75.6 744.7,20.2 		"/>
	</g>
	<g>
		<polygon class="st3" points="679.8,21 691.8,51.2 691.9,73.7 705.7,75.1 705.3,49.8 717.3,20.1 706.4,20.7 702,30.6 691.3,20.4 		
			"/>
	</g>
	<g>
		<polygon class="st3" points="632.4,20.8 632.6,74.6 646.2,74.9 645.2,52.5 656.3,52.5 654.6,38.5 646.2,39.5 645.9,33.1 
			665.1,32.7 665,20.2 		"/>
	</g>
	<g>
		<polygon class="st3" points="607,62.6 607.3,74.2 617.4,75.3 617.6,61.6 		"/>
	</g>
	<g>
		<path class="st4" d="M629,72.2c0,0.6-0.2,11.6-0.2,12s-0.3,1-0.6,1s-2.1,0.2-3.6,0.2s-5.8-0.2-6.1-0.2c-0.3,0.1-0.7,0-1-0.2
			c-0.3-0.2-1.5-1.3-4.4-4c-2.9-2.9-6.4-6.1-6.7-6.6c-0.4-0.5-0.7-1.1-0.7-1.7c0-0.8,0.3-10,0.4-10.7c0-0.4-0.2-0.7,0.6-0.8
			c0.7-0.1,10.8-0.1,11.7-0.1c0.6,0,1.2,0.2,1.6,0.7c0.4,0.5,8,8.6,8.5,9.2S629,71.6,629,72.2z M616.4,63.5c0-0.6-0.1-0.8-0.5-0.8
			l-7.7,0.1c-0.5,0-0.6-0.2-0.6,0.2v9.3c0,0.4-0.1,0.8,0.5,0.8s7,0.4,7.6,0.4s0.5-0.2,0.5-0.8S616.4,64,616.4,63.5z"/>
	</g>
	<g>
		<path class="st4" d="M676.6,29.7c0,0.6-0.5,10.5-0.5,11.2s-0.8,1-1.3,1s-5.6,0.2-7.5,0.2s-8.8,0-9.2-0.1s-0.6,0.1-0.3,0.3
			s3.1,3.2,5,5s4.7,4.3,4.9,4.5c0.2,0.1,0.2,0.3,0.2,0.5c0,0.5,0.2,2.7,0.2,5.1c0.1,1.8,0,3.5-0.1,5.2c-0.1,0.8-0.3,0.8-1,0.8
			s-9.1,0.3-9.5,0.3s-0.5,0.2-0.5,0.6s0.2,6,0.3,9.4s0.2,10,0.2,10.5c0.2,0.6-0.2,0.6-0.4,0.6s-4,0.2-6.5,0.2s-5.9,0-6.5-0.1
			c-0.4,0-0.7-0.2-1-0.4c-0.2-0.2-10.3-8.8-10.8-9.2c-0.4-0.3-0.6-0.9-0.5-1.4c0-0.2-0.1-12.8-0.2-25.7c-0.2-13.9,0-28.1,0-28.4
			s0.1-0.5,0.8-0.5s31.8,0.2,32.8,0.3c0.8-0.1,1.6,0.2,2.2,0.7c0.4,0.4,3.2,2.9,4.8,4.4s3.5,3.5,3.8,3.9
			C676.4,29,676.6,29.4,676.6,29.7z M663.4,30.2c0-0.5,0.2-8.5,0.1-8.9s0-0.3-0.5-0.2s-10.5-0.1-16-0.1s-12.5,0.1-12.9,0.1
			s-0.8-0.1-0.8,0.6c0,0.4-0.2,13,0,25.6s0.1,25,0.1,25.2c0,0.5,0,0.8,0.5,0.8s8.3,0.1,9,0.1s0.7-0.3,0.6-1s-0.5-19.5-0.5-20.2
			s0.3-0.5,0.7-0.5s9.5,0,10-0.1c0.3,0,0.5,0.1,0.5-0.3s-0.2-8.2-0.2-8.7s-0.1-0.6-0.6-0.6l-10.1-0.2c-0.5,0-0.6,0.1-0.6-0.6
			s0.1-9.8,0-10.4c-0.1-0.5,0.2-0.5,0.5-0.5s6.8,0.1,10.7,0.1h9.3C663.5,30.5,663.4,30.5,663.4,30.2z"/>
	</g>
	<g>
		<path class="st4" d="M729.9,37.1c0,0.6-0.2,1.1-0.5,1.7c-0.3,0.6-9.3,21.7-9.8,23c-0.5,1.1-0.9,2.3-1.1,3.5
			c-0.2,1.4-0.3,2.9-0.4,4.3c0,0.8-0.2,14.5-0.2,14.8s-0.1,0.5-0.5,0.5c-0.7,0-14.2,0-15.1-0.1c-0.6,0-1.2-0.2-1.6-0.6l-9.7-9.8
			c-0.2-0.3-0.4-0.7-0.3-1.1c0-0.5,0.2-20.4,0.2-20.8c0-0.7-0.1-1.4-0.3-2.1c-0.2-0.9-12.1-29.3-12.2-29.7s-0.1-0.7,0.5-0.8
			s11.3,0,12-0.1c0.8-0.1,0.8,0.1,1.2,0.5s8.1,7.4,8.7,8s0.6,0.5,0.8,0.1s3.5-8,3.7-8.4s0.2-0.4,0.5-0.4s3.1-0.1,6-0.1
			c3.1,0,5.3,0.1,5.8,0.1s0.5,0.1,0.9,0.5c0.5,0.5,10.5,10.7,10.9,11s0.5,0.5,0.5,1S730,36.7,729.9,37.1z M715.4,21l-8.5-0.1
			c-0.4,0-0.5,0-0.6,0.3c-0.2,0.5-7.8,16.9-8,17.3s-0.5,1-1-0.2c-0.4-1.1-7.2-16.4-7.3-16.9s-0.2-0.4-0.6-0.4s-8,0.2-8.3,0.3
			s-0.4,0.1-0.2,0.5s11.3,27.1,11.5,27.8c0.2,0.6,0.3,1.2,0.2,1.9c0,0.5-0.2,20.6-0.2,21.1s0.1,0.7,0.5,0.7s8.8,0.2,9.2,0.1
			s0.5,0.2,0.4-0.6s0.5-21.5,0.5-21.8c0.1-0.3,0.2-0.7,0.4-1c0.2-0.5,12.3-28.1,12.4-28.5S715.7,21,715.4,21z"/>
	</g>
	<g>
		<path class="st4" d="M756.3,83.1c0,1.4-0.4,1.3-1,1.3h-11c-0.6,0.1-1.1-0.1-1.5-0.5c-0.5-0.5-8.9-7.8-9.4-8
			c-0.3-0.3-0.6-0.7-0.6-1.1c0-0.6-0.2-15.6-0.2-26.5s0.1-27.5,0.1-28.2c0-0.4-0.1-0.6,0.5-0.7s11.4,0.1,12.1,0.1s0.8,0.1,1.3,0.7
			s9,8,9.5,8.4c0.3,0.2,0.5,0.6,0.5,1V55C756.5,62.6,756.3,81.8,756.3,83.1z M743.9,72.5c0-0.5-0.1-18.1-0.2-25.7s-0.5-24.4-0.5-25
			s-0.1-1-0.4-1l-8-0.1c-0.5,0-0.5,0-0.5,0.5c0,0.7-0.1,15.8-0.1,24.5s0.1,25.5,0.1,26.2s0.1,0.8,0.5,0.8c1.5,0.4,3,0.6,4.6,0.5
			c2.3,0,3.8,0.1,4,0S743.9,73.1,743.9,72.5z"/>
	</g>
</g>
</svg>
